<svg width="23" height="24" viewBox="0 0 23 24" fill="none" xmlns="http://www.w3.org/2000/svg">
<path d="M17 0C17.5523 0 18 0.447715 18 1V2.75C18 2.88807 18.1119 3 18.25 3H21C22.1046 3 23 3.89543 23 5V22C23 23.1046 22.1046 24 21 24H2C0.89543 24 0 23.1046 0 22V5C0 3.89543 0.89543 3 2 3H3.5C3.77614 3 4 3.22386 4 3.5V5.75C4 6.16421 4.33579 6.5 4.75 6.5C5.16421 6.5 5.5 6.16421 5.5 5.75V1C5.5 0.447715 5.94772 0 6.5 0C7.05228 0 7.5 0.447715 7.5 1V2.75098C7.50055 2.88866 7.61232 3 7.75 3H14C14.2761 3 14.5 3.22386 14.5 3.5V5.75C14.5 6.16421 14.8358 6.5 15.25 6.5C15.6642 6.5 16 6.16421 16 5.75V1C16 0.447715 16.4477 0 17 0ZM2.5 9C2.22386 9 2 9.22386 2 9.5V21.5C2 21.7761 2.22386 22 2.5 22H20.5C20.7761 22 21 21.7761 21 21.5V9.5C21 9.22386 20.7761 9 20.5 9H2.5Z" fill="black"/>
</svg>
