<svg width="24" height="24" viewBox="0 0 24 24" fill="none" xmlns="http://www.w3.org/2000/svg">
<path d="M1.0227e-05 11.5219C-0.000255131 11.8337 0.128584 12.1328 0.358158 12.3534C0.587731 12.574 0.899212 12.6979 1.22401 12.6979H8.44001C8.54126 12.6977 8.63263 12.7562 8.6714 12.846C8.71017 12.9358 8.6887 13.0392 8.61701 13.1078L3.51701 18.0038C3.03901 18.463 3.03923 19.2072 3.51751 19.6661C3.99579 20.125 4.77101 20.1247 5.24901 19.6656L10.349 14.7696C10.4205 14.7008 10.5282 14.6802 10.6217 14.7174C10.7153 14.7546 10.7762 14.8423 10.776 14.9395V21.8669C10.776 22.5158 11.324 23.0419 12 23.0419C12.676 23.0419 13.224 22.5158 13.224 21.8669V14.9366C13.2238 14.8394 13.2847 14.7517 13.3783 14.7145C13.4718 14.6773 13.5795 14.6979 13.651 14.7667L18.751 19.6627C19.229 20.1219 20.0042 20.1221 20.4825 19.6632C20.9608 19.2043 20.961 18.4601 20.483 18.001L15.383 13.105C15.3113 13.0363 15.2898 12.9329 15.3286 12.8431C15.3674 12.7533 15.4588 12.6949 15.56 12.695H22.776C23.4387 12.6769 23.966 12.1559 23.966 11.5195C23.966 10.8831 23.4387 10.3622 22.776 10.344H15.559C15.4578 10.3442 15.3664 10.2857 15.3276 10.1959C15.2888 10.1061 15.3103 10.0027 15.382 9.93408L20.482 5.03808C20.9427 4.57614 20.9344 3.84548 20.4633 3.39329C19.9923 2.9411 19.2312 2.93313 18.75 3.37536L13.65 8.27136C13.5785 8.34018 13.4708 8.3608 13.3773 8.32358C13.2837 8.28635 13.2228 8.19864 13.223 8.10144V1.17504C13.223 0.526083 12.675 0 11.999 0C11.323 0 10.775 0.526083 10.775 1.17504V8.10144C10.7752 8.19864 10.7143 8.28635 10.6207 8.32358C10.5272 8.3608 10.4195 8.34018 10.348 8.27136L5.24801 3.37536C4.76603 2.94099 4.01198 2.9521 3.54412 3.40047C3.07625 3.84884 3.06337 4.57271 3.51501 5.03616L8.61501 9.93216C8.6867 10.0008 8.70818 10.1042 8.6694 10.194C8.63063 10.2838 8.53926 10.3423 8.43801 10.3421H1.22401C0.898517 10.3421 0.586428 10.4665 0.356739 10.6879C0.12705 10.9093 -0.0013194 11.2094 1.0227e-05 11.5219Z" fill="black"/>
</svg>
